<?xml version="1.0" encoding="utf-8"?>
<!-- Svg Vector Icons : http://www.onlinewebfonts.com/icon -->
<!DOCTYPE svg PUBLIC "-//W3C//DTD SVG 1.1//EN" "http://www.w3.org/Graphics/SVG/1.1/DTD/svg11.dtd">
<svg version="1.1" xmlns="http://www.w3.org/2000/svg" xmlns:xlink="http://www.w3.org/1999/xlink" x="0px" y="0px" viewBox="0 0 1000 1000" enable-background="new 0 0 1000 1000" xml:space="preserve">
<metadata> Svg Vector Icons : http://www.onlinewebfonts.com/icon </metadata>
<g><path d="M223.9,601.5c0-11.6,1.8-189.8,90.7-325.8c67.3-102.3,140.8-140.3,202.6-140.3c62.5,0,121.3,52.7,121.3,108.4c0,55.7-44.7,117-132.3,189.8c-87.5,73.5-206.9,150.6-237.5,171.5C220.8,637,224.5,612.5,223.9,601.5z M779.3,755.8c-23.3-19.6-44.1-35.5-76-9.2C669,775.5,546.6,866.7,460.2,869.8c-86.4,3.1-189.2-45.3-218.7-148.9c0,0,291.5-93.1,436.7-263.2C770.7,348,789,265.9,788.5,226.1C788.5,179,801.9,10,528.9,10C255.1,10,89.2,250,72,600.9C55.5,951.2,325.6,983.7,446.8,989.7C568,995.3,757.9,909.5,802.5,817C802.5,817,817.2,786.5,779.3,755.8z M863.7,610.7c-36.1,0-65.5,33.6-65.5,74.6c0,41.1,29.4,74.7,65.5,74.7c35.5,0,65-33.7,65-74.7C928.7,644.4,899.3,610.7,863.7,610.7z"/></g>
</svg>